<?xml version="1.0" encoding="utf-8"?>
<!-- Generator: Adobe Illustrator 28.0.0, SVG Export Plug-In . SVG Version: 6.00 Build 0)  -->
<svg version="1.1" id="Layer_1" xmlns="http://www.w3.org/2000/svg" xmlns:xlink="http://www.w3.org/1999/xlink" x="0px" y="0px"
	 viewBox="0 0 40 40" style="enable-background:new 0 0 40 40;" xml:space="preserve">
<style type="text/css">
	.st0{fill:#FFFFFF;}
</style>
<path class="st0" d="M25.7,25.8h-2.4c-0.3-0.2-0.6-0.6-1-1c-0.8,0.8-1.9,1.2-3.2,1.2c-2.1,0-3.8-1.1-3.8-3.3c0-1.8,1.2-2.7,2.5-3.4
	c-0.5-0.8-0.8-1.8-0.8-2.5c0-1.5,1.3-2.8,3.1-2.8c1.6,0,2.8,0.8,2.8,2.4c0,1.8-1.5,2.5-2.9,3.2c0.4,0.5,0.8,1.1,1.2,1.5
	c0.4,0.5,0.8,0.9,1.2,1.3c0.5-0.8,0.9-1.8,1.2-2.5l1.5,0.7c-0.4,0.9-0.9,1.9-1.6,2.8C24.1,24.2,24.9,25,25.7,25.8z M21.3,23.7
	c-0.5-0.6-1.2-1.2-1.5-1.6c-0.4-0.5-0.8-1.1-1.3-1.7c-0.8,0.5-1.3,1.2-1.3,2.1c0,1.3,0.9,2,2,2C20,24.5,20.7,24.2,21.3,23.7z
	 M19.4,18.5c1.1-0.5,2-1.1,2-2.1c0-0.7-0.5-1.2-1.2-1.2c-0.8,0-1.4,0.6-1.4,1.5C18.8,17.3,19,17.9,19.4,18.5z"/>
<path class="st0" d="M5,14h5.7c2.2,0,3.3,1.3,3.3,2.9c0,1.4-0.9,2.4-2,2.6c1.2,0.2,2.2,1.4,2.2,2.8c0,1.7-1.2,3.1-3.4,3.1H5V14z
	 M10.3,18.7c1.1,0,1.6-0.6,1.6-1.5s-0.6-1.5-1.6-1.5H7.1v2.9L10.3,18.7L10.3,18.7z M10.4,23.6c1.2,0,1.8-0.6,1.8-1.6
	c0-0.8-0.6-1.6-1.8-1.6H7v3.2H10.4z"/>
<path class="st0" d="M26.3,14h5.4c2,0,3.1,1.3,3.1,2.9c0,1.4-0.9,2.4-1.9,2.6c1.2,0.2,2.1,1.4,2.1,2.8c0,1.7-1.2,3.1-3.2,3.1h-5.5
	V14z M31.3,18.7c1,0,1.5-0.6,1.5-1.5s-0.6-1.5-1.5-1.5h-3.1v2.9L31.3,18.7L31.3,18.7z M31.4,23.6c1.1,0,1.7-0.6,1.7-1.6
	c0-0.8-0.6-1.6-1.7-1.6h-3.2v3.2H31.4z"/>
</svg>
