<svg width="40" height="40" viewBox="0 0 40 40" fill="none" xmlns="http://www.w3.org/2000/svg">
<path d="M25.7269 25.7692H23.3471C23.04 25.5385 22.733 25.1538 22.3491 24.7692C21.5047 25.5385 20.4299 26 19.1249 26C17.0522 26 15.3633 24.9231 15.3633 22.6923C15.3633 20.9231 16.5916 20 17.8966 19.3077C17.436 18.4615 17.0522 17.5385 17.0522 16.7692C17.0522 15.2308 18.3572 14 20.1996 14C21.8118 14 23.04 14.8462 23.04 16.3846C23.04 18.1538 21.5815 18.9231 20.1229 19.6154C20.5067 20.1538 20.8906 20.6923 21.2744 21.0769C21.6582 21.5385 22.0421 22 22.4259 22.3846C22.9633 21.5385 23.3471 20.6154 23.5774 19.9231L25.1128 20.6154C24.7289 21.5385 24.1916 22.5385 23.5007 23.4615C24.1148 24.2308 24.8825 25 25.7269 25.7692ZM21.2744 23.6923C20.737 23.0769 20.1229 22.4615 19.8158 22.0769C19.432 21.5385 18.9714 21 18.5108 20.3846C17.7431 20.9231 17.2057 21.5385 17.2057 22.4615C17.2057 23.7692 18.1269 24.4615 19.2017 24.4615C20.0461 24.5385 20.6602 24.2308 21.2744 23.6923ZM19.432 18.5385C20.5067 18 21.4279 17.4615 21.4279 16.4615C21.4279 15.7692 20.8905 15.3077 20.2764 15.3077C19.5087 15.3077 18.8946 15.9231 18.8946 16.7692C18.8178 17.3077 19.0481 17.9231 19.432 18.5385Z" fill="#18316E"/>
<path d="M5 14H10.7182C12.8818 14 14.0409 15.2811 14.0409 16.939C14.0409 18.3708 13.1136 19.3505 12.0318 19.5766C13.2682 19.7273 14.2727 21.0084 14.2727 22.3648C14.2727 24.0981 13.0364 25.4545 10.8727 25.4545H5V14ZM10.3318 18.6722C11.4136 18.6722 11.9545 18.0694 11.9545 17.1651C11.9545 16.2608 11.3364 15.6579 10.3318 15.6579H7.08636V18.5969H10.3318V18.6722ZM10.4091 23.6459C11.5682 23.6459 12.1864 23.0431 12.1864 22.0634C12.1864 21.2344 11.5682 20.4809 10.4091 20.4809H7.00909V23.6459H10.4091Z" fill="#007ABF"/>
<path d="M26.2729 14H31.6548C33.6911 14 34.782 15.2811 34.782 16.939C34.782 18.3708 33.9093 19.3505 32.8911 19.5766C34.0548 19.7273 35.0002 21.0084 35.0002 22.3648C35.0002 24.0981 33.8366 25.4545 31.8002 25.4545H26.2729V14ZM31.2911 18.6722C32.3093 18.6722 32.8184 18.0694 32.8184 17.1651C32.8184 16.2608 32.2366 15.6579 31.2911 15.6579H28.2366V18.5969H31.2911V18.6722ZM31.3639 23.6459C32.4548 23.6459 33.0366 23.0431 33.0366 22.0634C33.0366 21.2344 32.4548 20.4809 31.3639 20.4809H28.1639V23.6459H31.3639Z" fill="#007ABF"/>
</svg>
