<svg width="40" height="40" viewBox="0 0 40 40" fill="none" xmlns="http://www.w3.org/2000/svg">
<path d="M30.7108 30.5711V33.729L24.1668 30.5969H8.78099C7.40452 30.5969 6.28906 29.4814 6.28906 28.1049V15.5447C6.28906 14.1682 7.40452 13.0527 8.78099 13.0527H28.2002C29.5767 13.0527 30.6921 14.1682 30.6921 15.5447V30.5711H30.7108Z" fill="#C4C7CC"/>
<path d="M4.96735 17.167H5.58769V26.4301H4.96735C3.60609 26.4301 2.5 25.3251 2.5 23.9627V19.6343C2.5 18.2731 3.60492 17.167 4.96735 17.167Z" fill="#C4C7CC"/>
<path d="M32.0331 26.4277H31.4128V17.1647H32.0331C33.3944 17.1647 34.5005 18.2696 34.5005 19.632V23.9604C34.5005 25.3216 33.3956 26.4277 32.0331 26.4277Z" fill="#C4C7CC"/>
<path d="M25.8672 8.81348V10.568H25.8578V12.3225H11.8228V10.568H11.8333V8.81348L14.99 10.568H15.031L18.8409 8.81348L22.6496 10.568H22.6613L25.8672 8.81348Z" fill="#F59E0B"/>
<path d="M18.8504 8.81416C19.2764 8.81416 19.6218 8.46882 19.6218 8.04282C19.6218 7.61682 19.2764 7.27148 18.8504 7.27148C18.4245 7.27148 18.0791 7.61682 18.0791 8.04282C18.0791 8.46882 18.4245 8.81416 18.8504 8.81416Z" fill="#F59E0B"/>
<path d="M25.868 8.81212C26.1783 8.81212 26.4298 8.56059 26.4298 8.2503C26.4298 7.94001 26.1783 7.68848 25.868 7.68848C25.5577 7.68848 25.3062 7.94001 25.3062 8.2503C25.3062 8.56059 25.5577 8.81212 25.868 8.81212Z" fill="#F59E0B"/>
<path d="M11.8338 8.81212C12.1441 8.81212 12.3956 8.56059 12.3956 8.2503C12.3956 7.94001 12.1441 7.68848 11.8338 7.68848C11.5235 7.68848 11.272 7.94001 11.272 8.2503C11.272 8.56059 11.5235 8.81212 11.8338 8.81212Z" fill="#F59E0B"/>
<circle cx="18.5" cy="25.2715" r="2" fill="#4B5563"/>
<path d="M10.5 19.2715L10.6805 19.4848C10.8411 19.6746 11.0324 19.8361 11.2464 19.9625V19.9625C11.5888 20.1648 11.9792 20.2715 12.3768 20.2715H12.6157H13.4619H14.3082H14.4832C14.9226 20.2715 15.354 20.1536 15.7324 19.93V19.93C15.9106 19.8247 16.0747 19.6974 16.2209 19.551L16.5 19.2715" stroke="#4B5563" stroke-linecap="round"/>
<path d="M20.5 19.2715L20.6805 19.4848C20.8411 19.6746 21.0324 19.8361 21.2464 19.9625V19.9625C21.5888 20.1648 21.9792 20.2715 22.3768 20.2715H22.6157H23.4619H24.3082H24.4832C24.9226 20.2715 25.354 20.1536 25.7324 19.93V19.93C25.9106 19.8247 26.0747 19.6974 26.2209 19.551L26.5 19.2715" stroke="#4B5563" stroke-linecap="round"/>
<path d="M26.8044 16.2715L26.6444 15.9435L29.0844 11.7915L29.3404 11.4155H26.9244V10.3275H31.1964L31.3564 10.6395L28.9644 14.7515L28.6764 15.1595H31.2124V16.2715H26.8044Z" fill="#030712"/>
<path d="M31.6305 13.2715L31.4305 12.8615L34.4805 7.67148L34.8005 7.20148H31.7805V5.84148H37.1205L37.3205 6.23148L34.3305 11.3715L33.9705 11.8815H37.1405V13.2715H31.6305Z" fill="#030712"/>
</svg>
