<svg width="40" height="40" viewBox="0 0 40 40" fill="none" xmlns="http://www.w3.org/2000/svg">
<path d="M32.2108 30.0711V33.229L25.6668 30.0969H10.281C8.90452 30.0969 7.78906 28.9814 7.78906 27.6049V15.0447C7.78906 13.6682 8.90452 12.5527 10.281 12.5527H29.7002C31.0767 12.5527 32.1921 13.6682 32.1921 15.0447V30.0711H32.2108Z" fill="#C4C7CC"/>
<path d="M6.46735 16.667H7.08769V25.9301H6.46735C5.10609 25.9301 4 24.8251 4 23.4627V19.1343C4 17.7731 5.10492 16.667 6.46735 16.667Z" fill="#C4C7CC"/>
<path d="M33.5331 25.9277H32.9128V16.6647H33.5331C34.8944 16.6647 36.0005 17.7696 36.0005 19.132V23.4604C36.0005 24.8216 34.8956 25.9277 33.5331 25.9277Z" fill="#C4C7CC"/>
<path d="M14.7195 15.9751L15.5857 17.8163L17.6047 18.0714C17.9149 18.1101 18.039 18.4928 17.8107 18.707L16.3278 20.0999L16.7093 22.099C16.7679 22.4057 16.4425 22.6421 16.1686 22.4923L14.3848 21.5114L12.601 22.4923C12.3271 22.6433 12.0017 22.4068 12.0602 22.099L12.4418 20.0999L10.9588 18.707C10.7306 18.4928 10.8558 18.1112 11.1648 18.0714L13.1839 17.8163L14.05 15.9751C14.1835 15.6919 14.5849 15.6919 14.7184 15.9751H14.7195Z" fill="#4B5563"/>
<path d="M25.9461 15.9751L26.8122 17.8163L28.8313 18.0714C29.1415 18.1101 29.2655 18.4928 29.0373 18.707L27.5543 20.0999L27.9359 22.099C27.9944 22.4057 27.669 22.6421 27.3951 22.4923L25.6113 21.5114L23.8276 22.4923C23.5537 22.6433 23.2283 22.4068 23.2868 22.099L23.6684 20.0999L22.1854 18.707C21.9571 18.4928 22.0824 18.1112 22.3914 18.0714L24.4104 17.8163L25.2766 15.9751C25.41 15.6919 25.8115 15.6919 25.9449 15.9751H25.9461Z" fill="#4B5563"/>
<path d="M16.7192 24.5922V23.9719H23.2739V24.5922C23.2739 25.9535 22.1689 27.0596 20.8065 27.0596H19.1866C17.8253 27.0596 16.7192 25.9546 16.7192 24.5922Z" fill="#4B5563"/>
<path d="M27.3667 8.31348V10.068H27.3573V11.8225H13.3223V10.068H13.3328V8.31348L16.4895 10.068H16.5305L20.3404 8.31348L24.1491 10.068H24.1608L27.3667 8.31348Z" fill="#F59E0B"/>
<path d="M20.35 8.31416C20.776 8.31416 21.1213 7.96882 21.1213 7.54282C21.1213 7.11682 20.776 6.77148 20.35 6.77148C19.924 6.77148 19.5786 7.11682 19.5786 7.54282C19.5786 7.96882 19.924 8.31416 20.35 8.31416Z" fill="#F59E0B"/>
<path d="M27.3675 8.31212C27.6778 8.31212 27.9293 8.06059 27.9293 7.7503C27.9293 7.44001 27.6778 7.18848 27.3675 7.18848C27.0572 7.18848 26.8057 7.44001 26.8057 7.7503C26.8057 8.06059 27.0572 8.31212 27.3675 8.31212Z" fill="#F59E0B"/>
<path d="M13.3333 8.31212C13.6436 8.31212 13.8951 8.06059 13.8951 7.7503C13.8951 7.44001 13.6436 7.18848 13.3333 7.18848C13.023 7.18848 12.7715 7.44001 12.7715 7.7503C12.7715 8.06059 13.023 8.31212 13.3333 8.31212Z" fill="#F59E0B"/>
</svg>
