<?xml version="1.0" encoding="utf-8"?>
<!-- Generator: Adobe Illustrator 28.0.0, SVG Export Plug-In . SVG Version: 6.00 Build 0)  -->
<svg version="1.1" id="Layer_1" xmlns="http://www.w3.org/2000/svg" xmlns:xlink="http://www.w3.org/1999/xlink" x="0px" y="0px"
	 viewBox="0 0 40 40" style="enable-background:new 0 0 40 40;" xml:space="preserve">
<style type="text/css">
	.st0{fill:#FFFFFF;}
</style>
<path class="st0" d="M4,13.5h3.4v1H5.2v0.8h2.2v1H5.2v1.9H4V13.5z"/>
<path class="st0" d="M8.1,13.5h1.2v4.7H8.1V13.5z"/>
<path class="st0" d="M11.9,16.6h-0.6v1.6h-1.2v-4.7h2.3c1,0,1.6,0.7,1.6,1.6c0,0.8-0.5,1.3-0.9,1.4l1,1.7h-1.4L11.9,16.6z
	 M12.2,14.5h-1v1.1h1c0.3,0,0.6-0.2,0.6-0.5C12.8,14.7,12.5,14.5,12.2,14.5z"/>
<path class="st0" d="M15,16.6c0.3,0.4,0.8,0.6,1.5,0.6c0.4,0,0.7-0.2,0.7-0.4c0-0.3-0.3-0.4-0.8-0.5c-0.8-0.2-1.8-0.4-1.8-1.5
	c0-0.8,0.7-1.5,1.8-1.5c0.7,0,1.4,0.2,1.9,0.6l-0.7,0.9c-0.4-0.3-0.9-0.5-1.3-0.5c-0.4,0-0.6,0.2-0.6,0.4c0,0.2,0.3,0.3,0.8,0.4
	c0.8,0.2,1.8,0.4,1.8,1.5c0,0.9-0.7,1.6-1.9,1.6c-0.9,0-1.6-0.3-2-0.8L15,16.6z"/>
<path class="st0" d="M19.9,14.6h-1.3v-1.1h3.8v1.1H21v3.6h-1.2V14.6z"/>
<path class="st0" d="M27.7,17.5h-1.9l-0.2,0.7h-1.3l1.8-4.7h1.5l1.8,4.7h-1.3L27.7,17.5z M26,16.5h1.3l-0.7-1.9L26,16.5z"/>
<path class="st0" d="M29.5,13.5h1.2v4.7h-1.2V13.5z"/>
<path class="st0" d="M31.6,13.5h1.9c1.5,0,2.5,0.9,2.5,2.3s-1,2.3-2.5,2.3h-1.9V13.5z M33.5,17.2c0.8,0,1.3-0.6,1.3-1.3
	c0-0.7-0.4-1.3-1.3-1.3h-0.7v2.6H33.5z"/>
<path class="st0" d="M4,20.7h3.9v1.3H5.4v1h2.5v1.3H5.4v2.3H4V20.7z"/>
<path class="st0" d="M8.5,24.6c0-1.1,0.9-2,2.3-2c1.4,0,2.3,0.9,2.3,2c0,1.1-0.9,2-2.3,2C9.4,26.6,8.5,25.7,8.5,24.6z M11.7,24.6
	c0-0.5-0.3-0.9-0.9-0.9c-0.6,0-0.9,0.4-0.9,0.9s0.3,0.9,0.9,0.9C11.4,25.5,11.7,25.1,11.7,24.6z"/>
<path class="st0" d="M13.7,22.7H15v0.5c0.3-0.3,0.8-0.6,1.3-0.6v1.2c-0.1,0-0.2,0-0.3,0c-0.3,0-0.8,0.1-1,0.4v2.4h-1.3L13.7,22.7
	L13.7,22.7z"/>
<path class="st0" d="M19.8,24.1L19,26.6h-1.5l-1.3-3.9h1.4l0.7,2.4l0.9-2.4h1.2l0.9,2.4l0.7-2.4h1.4l-1.3,3.9h-1.5L19.8,24.1z"/>
<path class="st0" d="M26,26.1c-0.3,0.3-0.7,0.5-1.2,0.5c-0.6,0-1.4-0.4-1.4-1.2c0-0.9,0.8-1.2,1.4-1.2c0.5,0,1,0.1,1.2,0.4v-0.5
	c0-0.3-0.3-0.5-0.8-0.5c-0.4,0-0.8,0.1-1.1,0.4l-0.4-0.7c0.5-0.4,1.2-0.6,1.8-0.6c1,0,1.9,0.3,1.9,1.5v2.3H26V26.1z M26,25.2
	c-0.1-0.2-0.4-0.3-0.7-0.3c-0.4,0-0.6,0.1-0.6,0.4c0,0.3,0.3,0.4,0.6,0.4c0.3,0,0.6-0.1,0.7-0.3V25.2z"/>
<path class="st0" d="M28.6,22.7h1.3v0.5c0.3-0.3,0.8-0.6,1.3-0.6v1.2c-0.1,0-0.2,0-0.3,0c-0.3,0-0.8,0.1-1,0.4v2.4h-1.3L28.6,22.7
	L28.6,22.7z"/>
<path class="st0" d="M34.4,26c-0.3,0.4-0.8,0.6-1.3,0.6c-1.1,0-1.9-0.8-1.9-2.2c0-1.4,0.8-2.2,1.9-2.2c0.5,0,0.9,0.2,1.3,0.6v-2.1
	h1.4v5.8h-1.4V26z M34.4,23.7c-0.2-0.2-0.5-0.4-0.8-0.4c-0.5,0-1,0.4-1,1s0.4,1,1,1c0.3,0,0.6-0.2,0.8-0.4V23.7z"/>
</svg>
