<svg width="48" height="48" viewBox="0 0 48 48" fill="none" xmlns="http://www.w3.org/2000/svg">
<rect width="48" height="48" rx="24" fill="#4F46E5"/>
<path d="M35.447 33.8433V36.8038L29.312 33.8674H14.8879C13.5975 33.8674 12.5518 32.8217 12.5518 31.5312V19.7561C12.5518 18.4657 13.5975 17.4199 14.8879 17.4199H33.0933C34.3837 17.4199 35.4294 18.4657 35.4294 19.7561V33.8433H35.447Z" fill="#E5E7EB"/>
<path d="M11.3131 21.2793H11.8947V29.9634H11.3131C10.037 29.9634 9 28.9275 9 27.6502V23.5924C9 22.3162 10.0359 21.2793 11.3131 21.2793Z" fill="#E5E7EB"/>
<path d="M36.6864 29.9609H36.1048V21.2769H36.6864C37.9626 21.2769 38.9995 22.3127 38.9995 23.59V27.6478C38.9995 28.924 37.9637 29.9609 36.6864 29.9609Z" fill="#E5E7EB"/>
<path d="M19.0494 20.6249L19.8614 22.351L21.7543 22.5902C22.045 22.6264 22.1614 22.9852 21.9474 23.186L20.5571 24.4918L20.9148 26.366C20.9697 26.6535 20.6646 26.8752 20.4079 26.7347L18.7356 25.8152L17.0633 26.7347C16.8065 26.8763 16.5015 26.6546 16.5563 26.366L16.9141 24.4918L15.5238 23.186C15.3098 22.9852 15.4272 22.6275 15.7169 22.5902L17.6098 22.351L18.4217 20.6249C18.5468 20.3594 18.9232 20.3594 19.0483 20.6249H19.0494Z" fill="#4B5563"/>
<path d="M29.5748 20.6249L30.3868 22.351L32.2797 22.5902C32.5704 22.6264 32.6868 22.9852 32.4728 23.186L31.0825 24.4918L31.4402 26.366C31.4951 26.6535 31.19 26.8752 30.9333 26.7347L29.261 25.8152L27.5887 26.7347C27.3319 26.8763 27.0269 26.6546 27.0817 26.366L27.4395 24.4918L26.0492 23.186C25.8352 22.9852 25.9526 22.6275 26.2423 22.5902L28.1351 22.351L28.9471 20.6249C29.0722 20.3594 29.4486 20.3594 29.5737 20.6249H29.5748Z" fill="#4B5563"/>
<path d="M20.9233 28.7045V28.1229H27.0682V28.7045C27.0682 29.9806 26.0324 31.0176 24.7551 31.0176H23.2365C21.9603 31.0176 20.9233 29.9817 20.9233 28.7045Z" fill="#4B5563"/>
<path d="M30.9077 13.4453V15.0902H30.899V16.735H17.7412V15.0902H17.7511V13.4453L20.7105 15.0902H20.7489L24.3206 13.4453L27.8913 15.0902H27.9022L30.9077 13.4453Z" fill="#F59E0B"/>
<path d="M24.3291 13.4462C24.7285 13.4462 25.0522 13.1225 25.0522 12.7231C25.0522 12.3238 24.7285 12 24.3291 12C23.9297 12 23.606 12.3238 23.606 12.7231C23.606 13.1225 23.9297 13.4462 24.3291 13.4462Z" fill="#F59E0B"/>
<path d="M30.9076 13.446C31.1985 13.446 31.4343 13.2102 31.4343 12.9193C31.4343 12.6284 31.1985 12.3926 30.9076 12.3926C30.6167 12.3926 30.3809 12.6284 30.3809 12.9193C30.3809 13.2102 30.6167 13.446 30.9076 13.446Z" fill="#F59E0B"/>
<path d="M17.7508 13.446C18.0417 13.446 18.2775 13.2102 18.2775 12.9193C18.2775 12.6284 18.0417 12.3926 17.7508 12.3926C17.4599 12.3926 17.2241 12.6284 17.2241 12.9193C17.2241 13.2102 17.4599 13.446 17.7508 13.446Z" fill="#F59E0B"/>
</svg>
