<svg width="20" height="20" viewBox="0 0 20 20" fill="none" xmlns="http://www.w3.org/2000/svg">
<path d="M9.64941 11.1475C9.80316 10.9961 10.0294 10.9659 10.2139 11.0537C9.45469 11.9967 9 13.1952 9 14.5C9 15.4005 9.21789 16.2497 9.60156 17H6C5.35382 17 4.75531 16.7958 4.26562 16.4482L9.64941 11.1475Z" fill="#020202"/>
<path fill-rule="evenodd" clip-rule="evenodd" d="M14 3C15.6569 3 17 4.34315 17 6V9.60059C16.2498 9.21704 15.4004 9 14.5 9C13.1344 9 11.8855 9.49832 10.9238 10.3223C10.338 9.86318 9.48998 9.9002 8.94727 10.4346L3.55762 15.7422C3.2068 15.2511 3 14.6495 3 14V6C3 4.34315 4.34315 3 6 3H14ZM12.5 6.25C11.8096 6.25 11.25 6.80964 11.25 7.5C11.25 8.19036 11.8096 8.75 12.5 8.75C13.1904 8.75 13.75 8.19036 13.75 7.5C13.75 6.80964 13.1904 6.25 12.5 6.25Z" fill="#020202"/>
<path fill-rule="evenodd" clip-rule="evenodd" d="M14.5 19C12.0147 19 10 16.9853 10 14.5C10 12.0147 12.0147 10 14.5 10C16.9853 10 19 12.0147 19 14.5C19 16.9853 16.9853 19 14.5 19ZM16 12C16 11.7239 16.2239 11.5 16.5 11.5C16.7761 11.5 17 11.7239 17 12V13.5C17 13.7761 16.7761 14 16.5 14H15C14.7239 14 14.5 13.7761 14.5 13.5C14.5 13.2239 14.7239 13 15 13H15.4682C15.4179 12.9722 15.3663 12.9464 15.3135 12.923C15.0682 12.8137 14.8034 12.755 14.535 12.7503C14.2665 12.7456 13.9998 12.795 13.7508 12.8956C13.5018 12.9962 13.2756 13.1459 13.0857 13.3358C12.8905 13.531 12.5739 13.531 12.3786 13.3358C12.1834 13.1405 12.1834 12.8239 12.3786 12.6287C12.6635 12.3439 13.0027 12.1193 13.3762 11.9684C13.7497 11.8175 14.1497 11.7434 14.5524 11.7505C14.9552 11.7575 15.3524 11.8456 15.7203 12.0094C15.8162 12.0521 15.9095 12.0997 16 12.1519V12ZM14.4476 17.2495C14.8503 17.2566 15.2503 17.1825 15.6238 17.0316C15.9973 16.8807 16.3365 16.6561 16.6214 16.3713C16.8166 16.1761 16.8166 15.8595 16.6214 15.6642C16.4261 15.469 16.1095 15.469 15.9143 15.6642C15.7244 15.8541 15.4982 16.0038 15.2492 16.1044C15.0002 16.205 14.7335 16.2544 14.465 16.2497C14.1966 16.245 13.9318 16.1863 13.6865 16.077C13.6337 16.0536 13.5821 16.0278 13.5318 16H14C14.2761 16 14.5 15.7761 14.5 15.5C14.5 15.2239 14.2761 15 14 15H12.5C12.2239 15 12 15.2239 12 15.5V17C12 17.2761 12.2239 17.5 12.5 17.5C12.7761 17.5 13 17.2761 13 17V16.8481C13.0905 16.9003 13.1838 16.9479 13.2797 16.9906C13.6476 17.1544 14.0448 17.2425 14.4476 17.2495Z" fill="#020202"/>
</svg>
