<svg width="20" height="20" viewBox="0 0 20 20" fill="none" xmlns="http://www.w3.org/2000/svg">
<path d="M9.64941 11.1475C9.80316 10.9961 10.0294 10.9659 10.2139 11.0537C9.45469 11.9967 9 13.1952 9 14.5C9 15.4005 9.21789 16.2497 9.60156 17H6C5.35382 17 4.75531 16.7958 4.26562 16.4482L9.64941 11.1475Z" fill="#020202"/>
<path fill-rule="evenodd" clip-rule="evenodd" d="M14 3C15.6569 3 17 4.34315 17 6V9.60059C16.2498 9.21704 15.4004 9 14.5 9C13.1344 9 11.8855 9.49832 10.9238 10.3223C10.338 9.86318 9.48998 9.9002 8.94727 10.4346L3.55762 15.7422C3.2068 15.2511 3 14.6495 3 14V6C3 4.34315 4.34315 3 6 3H14ZM12.5 6.25C11.8096 6.25 11.25 6.80964 11.25 7.5C11.25 8.19036 11.8096 8.75 12.5 8.75C13.1904 8.75 13.75 8.19036 13.75 7.5C13.75 6.80964 13.1904 6.25 12.5 6.25Z" fill="#020202"/>
<path fill-rule="evenodd" clip-rule="evenodd" d="M14.5 19C16.9853 19 19 16.9853 19 14.5C19 12.0147 16.9853 10 14.5 10C12.0147 10 10 12.0147 10 14.5C10 16.9853 12.0147 19 14.5 19ZM14 12.5C14 12.2239 14.2239 12 14.5 12C14.7761 12 15 12.2239 15 12.5V14.5C15 14.7761 14.7761 15 14.5 15C14.2239 15 14 14.7761 14 14.5V12.5ZM15.125 16.5C15.125 16.8452 14.8452 17.125 14.5 17.125C14.1548 17.125 13.875 16.8452 13.875 16.5C13.875 16.1548 14.1548 15.875 14.5 15.875C14.8452 15.875 15.125 16.1548 15.125 16.5Z" fill="#FF383C"/>
</svg>
